<svg width="240" height="80" viewBox="0 0 240 80" fill="none" xmlns="http://www.w3.org/2000/svg">
<path d="M104.283 77.649L107.999 67.3958H109.483L113.189 77.649H111.847L110.838 74.846H106.634L105.62 77.649H104.278H104.283ZM106.985 73.6363H110.482L108.738 68.6786L106.985 73.6363Z" fill="#404040"/>
<path d="M114.778 77.6491V70.3175H116.056V71.3811C116.175 71.1803 116.339 70.9885 116.549 70.8105C116.759 70.6325 117.015 70.4909 117.316 70.3814C117.618 70.2718 117.965 70.217 118.357 70.217C118.823 70.217 119.247 70.3083 119.635 70.4909C120.023 70.6735 120.338 70.9612 120.571 71.3492C120.804 71.7372 120.923 72.2394 120.923 72.8557V77.6491H119.613V72.9835C119.613 72.4129 119.462 71.9883 119.161 71.7098C118.859 71.4314 118.471 71.2944 117.992 71.2944C117.659 71.2944 117.353 71.3492 117.061 71.4542C116.773 71.5592 116.536 71.719 116.358 71.9381C116.18 72.1526 116.088 72.422 116.088 72.7507V77.6491H114.778Z" fill="#404040"/>
<path d="M130.87 77.7892C129.957 77.7892 129.167 77.5838 128.501 77.1729C127.834 76.7621 127.318 76.1641 126.958 75.3834C126.597 74.6028 126.415 73.6532 126.415 72.5439C126.415 71.4346 126.597 70.4713 126.962 69.6816C127.328 68.8964 127.843 68.2938 128.51 67.8783C129.181 67.4629 129.966 67.2529 130.87 67.2529C131.774 67.2529 132.564 67.4584 133.226 67.8738C133.888 68.2892 134.399 68.8872 134.76 69.677C135.12 70.4622 135.298 71.4209 135.298 72.5439C135.298 73.6669 135.12 74.6028 134.764 75.3834C134.408 76.1641 133.897 76.7621 133.235 77.1729C132.573 77.5838 131.788 77.7892 130.875 77.7892M130.87 76.648C131.505 76.648 132.043 76.5019 132.486 76.2143C132.929 75.9267 133.271 75.4793 133.504 74.8721C133.737 74.2695 133.856 73.4935 133.856 72.553C133.856 71.6126 133.737 70.8137 133.5 70.1974C133.262 69.5811 132.924 69.1292 132.477 68.8325C132.034 68.5357 131.496 68.3896 130.866 68.3896C130.236 68.3896 129.706 68.5403 129.254 68.837C128.807 69.1338 128.46 69.5903 128.218 70.2066C127.976 70.8229 127.857 71.6035 127.857 72.553C127.857 73.5026 127.976 74.2695 128.218 74.8721C128.46 75.4793 128.802 75.9221 129.254 76.2143C129.701 76.5019 130.24 76.648 130.866 76.648" fill="#404040"/>
<path d="M141.343 77.7892C140.42 77.7892 139.635 77.5792 138.982 77.1593C138.334 76.7393 137.837 76.1321 137.494 75.3423C137.152 74.5526 136.978 73.5985 136.978 72.4846C136.978 71.3707 137.147 70.4257 137.49 69.6496C137.832 68.869 138.325 68.2755 138.978 67.8647C139.626 67.4538 140.416 67.2529 141.343 67.2529C142.064 67.2529 142.708 67.4036 143.264 67.7049C143.821 68.0062 144.273 68.4079 144.611 68.9055C144.954 69.4077 145.15 69.9555 145.214 70.5581H143.817C143.739 70.1564 143.598 69.7911 143.383 69.467C143.169 69.1429 142.89 68.8827 142.548 68.6864C142.201 68.4946 141.79 68.3942 141.306 68.3942C140.685 68.3942 140.165 68.5403 139.736 68.8325C139.306 69.1246 138.982 69.572 138.763 70.1746C138.544 70.7772 138.435 71.5533 138.435 72.4983C138.435 73.9271 138.681 74.9726 139.17 75.6436C139.658 76.3101 140.37 76.648 141.306 76.648C141.79 76.648 142.201 76.5475 142.548 76.3421C142.895 76.1412 143.173 75.8673 143.383 75.5249C143.598 75.1826 143.739 74.8173 143.817 74.4202H145.214C145.164 74.8539 145.045 75.2739 144.862 75.6802C144.68 76.0819 144.429 76.4425 144.114 76.7621C143.799 77.0771 143.406 77.3282 142.945 77.5153C142.484 77.6979 141.95 77.7938 141.338 77.7938" fill="#404040"/>
<path d="M147.35 77.649V67.3958H150.646C151.892 67.3958 152.837 67.624 153.481 68.0851C154.12 68.5416 154.44 69.2035 154.44 70.0709C154.44 70.6142 154.298 71.0798 154.02 71.4678C153.737 71.8559 153.244 72.1754 152.541 72.4265C152.942 72.5133 153.28 72.6365 153.559 72.7963C153.837 72.9561 154.056 73.1432 154.225 73.3624C154.394 73.5769 154.513 73.8143 154.586 74.0745C154.659 74.3347 154.695 74.6087 154.695 74.8963C154.695 75.823 154.367 76.5123 153.705 76.9688C153.047 77.4253 152.061 77.6536 150.751 77.6536H147.345L147.35 77.649ZM148.66 71.9061H150.893C151.162 71.9061 151.431 71.8787 151.696 71.8285C151.961 71.7783 152.203 71.687 152.426 71.5591C152.65 71.4313 152.828 71.2624 152.965 71.0433C153.102 70.8287 153.171 70.5594 153.171 70.2398C153.171 69.6418 152.942 69.1944 152.486 68.9114C152.029 68.6238 151.436 68.4823 150.71 68.4823H148.66V71.9061ZM148.66 76.558H150.737C151.591 76.558 152.244 76.4164 152.691 76.138C153.139 75.8549 153.362 75.4212 153.362 74.8369C153.362 74.4078 153.253 74.0563 153.034 73.7915C152.814 73.5267 152.518 73.3304 152.143 73.2072C151.769 73.0839 151.354 73.0246 150.897 73.0246H148.665V76.5625L148.66 76.558Z" fill="#404040"/>
<path d="M160.689 77.7892C159.767 77.7892 158.982 77.5792 158.329 77.1593C157.681 76.7393 157.183 76.1321 156.841 75.3423C156.499 74.5526 156.325 73.5985 156.325 72.4846C156.325 71.3707 156.494 70.4257 156.836 69.6496C157.179 68.869 157.672 68.2755 158.325 67.8647C158.973 67.4538 159.763 67.2529 160.689 67.2529C161.411 67.2529 162.054 67.4036 162.611 67.7049C163.168 68.0062 163.62 68.4079 163.958 68.9055C164.3 69.4077 164.497 69.9555 164.561 70.5581H163.164C163.086 70.1564 162.945 69.7911 162.73 69.467C162.516 69.1429 162.237 68.8827 161.895 68.6864C161.548 68.4946 161.137 68.3942 160.653 68.3942C160.032 68.3942 159.512 68.5403 159.083 68.8325C158.653 69.1246 158.329 69.572 158.11 70.1746C157.891 70.7772 157.781 71.5533 157.781 72.4983C157.781 73.9271 158.028 74.9726 158.516 75.6436C159.005 76.3101 159.717 76.648 160.653 76.648C161.137 76.648 161.548 76.5475 161.895 76.3421C162.242 76.1412 162.52 75.8673 162.73 75.5249C162.945 75.1826 163.086 74.8173 163.164 74.4202H164.561C164.51 74.8539 164.392 75.2739 164.209 75.6802C164.027 76.0819 163.775 76.4425 163.46 76.7621C163.145 77.0771 162.753 77.3282 162.292 77.5153C161.831 77.6979 161.297 77.7938 160.685 77.7938" fill="#404040"/>
<path d="M173.677 77.7892C172.755 77.7892 171.97 77.5792 171.317 77.1593C170.669 76.7393 170.171 76.1321 169.829 75.3423C169.486 74.5526 169.313 73.5985 169.313 72.4846C169.313 71.3707 169.482 70.4257 169.824 69.6496C170.167 68.869 170.66 68.2755 171.313 67.8647C171.961 67.4538 172.751 67.2529 173.677 67.2529C174.399 67.2529 175.042 67.4036 175.599 67.7049C176.156 68.0062 176.608 68.4079 176.946 68.9055C177.288 69.4077 177.485 69.9555 177.548 70.5581H176.152C176.074 70.1564 175.932 69.7911 175.718 69.467C175.503 69.1429 175.225 68.8827 174.882 68.6864C174.535 68.4946 174.125 68.3942 173.641 68.3942C173.02 68.3942 172.499 68.5403 172.07 68.8325C171.641 69.1246 171.317 69.572 171.098 70.1746C170.879 70.7772 170.769 71.5533 170.769 72.4983C170.769 73.9271 171.016 74.9726 171.504 75.6436C171.993 76.3101 172.705 76.648 173.641 76.648C174.125 76.648 174.535 76.5475 174.882 76.3421C175.229 76.1412 175.508 75.8673 175.718 75.5249C175.932 75.1826 176.074 74.8173 176.152 74.4202H177.548C177.498 74.8539 177.38 75.2739 177.197 75.6802C177.014 76.0819 176.763 76.4425 176.448 76.7621C176.133 77.0771 175.741 77.3282 175.28 77.5153C174.819 77.6979 174.284 77.7938 173.673 77.7938" fill="#404040"/>
<path d="M182.31 77.7892C181.634 77.7892 181.045 77.6431 180.539 77.3509C180.036 77.0588 179.644 76.6342 179.365 76.0727C179.087 75.5112 178.945 74.8219 178.945 74.0093C178.945 73.2423 179.078 72.5713 179.338 71.996C179.598 71.4208 179.977 70.9735 180.479 70.6539C180.981 70.3343 181.593 70.1746 182.314 70.1746C182.99 70.1746 183.574 70.3206 184.072 70.6174C184.57 70.9141 184.953 71.3478 185.231 71.9184C185.51 72.4891 185.647 73.1875 185.647 74.0093C185.647 74.758 185.519 75.4153 185.263 75.9814C185.008 76.5475 184.633 76.9903 184.14 77.3099C183.647 77.6294 183.036 77.7892 182.305 77.7892M182.314 76.7529C182.748 76.7529 183.118 76.6433 183.419 76.4197C183.72 76.196 183.953 75.8764 184.108 75.461C184.268 75.0456 184.346 74.5525 184.346 73.9773C184.346 73.4523 184.277 72.9821 184.136 72.5621C183.994 72.1421 183.775 71.8134 183.478 71.5669C183.182 71.3204 182.789 71.1972 182.31 71.1972C181.867 71.1972 181.488 71.3067 181.182 71.5258C180.876 71.745 180.644 72.0645 180.484 72.48C180.324 72.8954 180.246 73.393 180.246 73.9773C180.246 74.4932 180.315 74.9588 180.456 75.3834C180.598 75.8034 180.817 76.1366 181.123 76.3831C181.429 76.6297 181.826 76.7529 182.31 76.7529" fill="#404040"/>
<path d="M187.377 77.6477V70.3161H188.646V71.3798C188.852 71.0602 189.13 70.7772 189.482 70.5352C189.838 70.2933 190.299 70.1746 190.865 70.1746C191.13 70.1746 191.399 70.2202 191.678 70.3115C191.956 70.4028 192.207 70.5352 192.44 70.7132C192.673 70.8913 192.851 71.115 192.979 71.3752C193.207 71.0145 193.513 70.7269 193.901 70.5078C194.289 70.2887 194.727 70.1791 195.211 70.1791C195.467 70.1791 195.732 70.2202 196.015 70.2978C196.293 70.3754 196.553 70.5124 196.791 70.7087C197.028 70.905 197.224 71.1743 197.375 71.5258C197.526 71.8728 197.603 72.3202 197.603 72.8634V77.6568H196.284V72.9912C196.284 72.5484 196.211 72.2015 196.069 71.9595C195.928 71.7176 195.741 71.5441 195.512 71.4437C195.284 71.3432 195.038 71.293 194.777 71.293C194.549 71.293 194.307 71.3387 194.056 71.43C193.8 71.5213 193.581 71.6719 193.403 71.8819C193.225 72.0965 193.134 72.3841 193.134 72.7539V77.6522H191.828V72.6032C191.828 72.3156 191.751 72.0737 191.596 71.8819C191.44 71.6902 191.249 71.5395 191.02 71.4437C190.792 71.3432 190.564 71.293 190.336 71.293C190.084 71.293 189.833 71.3432 189.582 71.4437C189.331 71.5441 189.117 71.6993 188.943 71.9184C188.77 72.1376 188.683 72.416 188.683 72.7539V77.6522H187.373L187.377 77.6477Z" fill="#404040"/>
<path d="M199.689 79.9311V70.3124H200.986L201 71.5906C201.086 71.4399 201.196 71.2802 201.328 71.1158C201.465 70.9515 201.63 70.7963 201.826 70.6547C202.022 70.5132 202.25 70.3991 202.515 70.3078C202.775 70.2165 203.077 70.1708 203.41 70.1708C203.994 70.1708 204.515 70.3032 204.962 70.5726C205.409 70.8373 205.756 71.2482 206.008 71.796C206.259 72.3438 206.382 73.0423 206.382 73.8868C206.382 74.7314 206.259 75.4299 206.017 76.0096C205.775 76.5894 205.423 77.0322 204.962 77.3335C204.506 77.6348 203.949 77.7855 203.3 77.7855C202.976 77.7855 202.684 77.7398 202.433 77.6485C202.182 77.5572 201.958 77.4339 201.776 77.2879C201.588 77.1372 201.433 76.9774 201.305 76.8085C201.182 76.6396 201.077 76.4753 200.995 76.3201V79.9311H199.685H199.689ZM203.058 76.7674C203.666 76.7674 204.159 76.5346 204.542 76.0781C204.926 75.617 205.117 74.9003 205.117 73.9279C205.117 73.0925 204.944 72.426 204.592 71.933C204.241 71.4399 203.734 71.1934 203.058 71.1934C202.383 71.1934 201.862 71.4445 201.511 71.9467C201.159 72.4488 200.986 73.1062 200.986 73.9234C200.986 74.4484 201.063 74.9231 201.219 75.3568C201.374 75.7859 201.607 76.1283 201.913 76.384C202.218 76.6396 202.602 76.7674 203.054 76.7674" fill="#404040"/>
<path d="M210.166 77.7895C209.687 77.7895 209.267 77.7074 208.906 77.5384C208.546 77.3695 208.263 77.1276 208.057 76.8126C207.852 76.4976 207.747 76.1141 207.747 75.6622C207.747 74.8496 208.03 74.2424 208.596 73.8453C209.162 73.4481 210.075 73.2335 211.326 73.2061L212.632 73.1696V72.5944C212.632 72.147 212.495 71.791 212.225 71.5262C211.956 71.266 211.54 71.1336 210.979 71.1381C210.559 71.1381 210.185 71.234 209.865 71.4303C209.545 71.6266 209.34 71.9416 209.249 72.3799H208.094C208.121 71.9005 208.254 71.4988 208.495 71.1701C208.733 70.8414 209.071 70.5903 209.504 70.4214C209.938 70.2525 210.454 70.1658 211.043 70.1658C211.682 70.1658 212.212 70.2571 212.636 70.4351C213.061 70.6132 213.376 70.8779 213.586 71.2294C213.796 71.581 213.901 72.0101 213.901 72.5214V77.6434H212.782L212.682 76.2693C212.399 76.84 212.038 77.2372 211.604 77.4563C211.171 77.6754 210.691 77.785 210.166 77.785M210.554 76.8491C210.805 76.8491 211.052 76.8035 211.294 76.7122C211.536 76.6209 211.76 76.5022 211.96 76.3469C212.161 76.1917 212.326 76.0228 212.444 75.8311C212.568 75.6394 212.627 75.4431 212.627 75.2376V73.9822L211.54 74.005C210.979 74.0142 210.509 74.0735 210.134 74.1785C209.76 74.2835 209.482 74.4479 209.29 74.667C209.103 74.8861 209.007 75.1783 209.007 75.5344C209.007 75.9452 209.148 76.2693 209.44 76.4976C209.728 76.7304 210.098 76.8445 210.545 76.8445" fill="#404040"/>
<path d="M215.914 77.6491V70.3175H217.192V71.3811C217.311 71.1803 217.475 70.9885 217.685 70.8105C217.895 70.6325 218.151 70.4909 218.452 70.3814C218.753 70.2718 219.1 70.217 219.493 70.217C219.959 70.217 220.383 70.3083 220.771 70.4909C221.159 70.6735 221.474 70.9612 221.707 71.3492C221.94 71.7372 222.058 72.2394 222.058 72.8557V77.6491H220.748V72.9835C220.748 72.4129 220.598 71.9883 220.296 71.7098C219.995 71.4314 219.607 71.2944 219.128 71.2944C218.794 71.2944 218.489 71.3492 218.196 71.4542C217.909 71.5592 217.671 71.719 217.493 71.9381C217.315 72.1526 217.224 72.422 217.224 72.7507V77.6491H215.914Z" fill="#404040"/>
<path d="M224.615 79.9905C224.186 79.9905 223.807 79.9311 223.487 79.8079V78.9588L224.241 78.9725C224.51 78.9816 224.734 78.9633 224.916 78.9177C225.094 78.872 225.24 78.8081 225.35 78.7259C225.46 78.6438 225.542 78.557 225.601 78.4566C225.66 78.3562 225.711 78.2603 225.747 78.1736L226.003 77.4797L223.136 70.3261H224.464L226.628 75.9869L228.778 70.3261H230.061L226.975 78.2101C226.784 78.6712 226.569 79.0364 226.332 79.2966C226.099 79.5568 225.839 79.7394 225.551 79.8444C225.263 79.9494 224.953 79.9996 224.62 79.9996" fill="#404040"/>
<path d="M113.797 13.0698C113.797 13.0698 113.765 14.7726 114.6 16.3339C114.6 16.3339 116.97 15.535 120.206 15.4437V23.734C118.723 24.6744 117.298 24.8935 115.792 24.8935C111.245 24.8935 108.287 19.2921 108.287 12.9055C108.287 6.51888 111.25 2.18657 114.719 2.18657C117.764 2.18657 121.215 4.86174 122.736 8.31754C122.736 8.31754 124.616 5.43694 125.233 2.26875C122.407 0.556824 118.819 -0.00012207 115.815 -0.00012207C108.378 -0.00012207 102.667 5.02152 102.667 13.7866C102.667 22.5516 108.077 27.6874 114.349 27.6874C117.084 27.6874 119.179 26.8337 120.759 25.5692C121.658 25.8568 123.507 26.5278 125.146 27.6874V13.2844H120.75C117.216 13.2844 113.792 13.0698 113.792 13.0698H113.797Z" fill="#212492"/>
<path d="M182.543 7.39182C180.868 6.99921 178.727 6.71161 176.727 6.71161C168.752 6.71161 165.027 11.6922 165.027 18.307C165.027 24.1504 168.515 27.6929 172.573 27.6929C174.618 27.6929 176.28 26.6156 177.503 24.9949V27.3551H182.525L182.548 7.39638L182.543 7.39182ZM174.075 24.8169C172.336 24.8169 170.158 23.0821 170.158 17.6999C170.158 9.84785 174.678 8.22723 177.43 8.64266V22.8037C176.622 24.0637 175.344 24.8169 174.08 24.8169H174.075Z" fill="#212492"/>
<path d="M139.599 6.70665C137.385 6.70665 135.801 8.31814 134.555 10.3496V7.04447H129.524V27.3502H134.637V12.7874C135.226 11.3768 136.349 10.6235 137.504 10.6235C139.202 10.6235 140.339 12.0022 140.955 14.1295C142.873 11.5411 143.183 8.57379 143.183 8.57379C142.197 7.25447 140.773 6.70209 139.599 6.70209V6.70665Z" fill="#212492"/>
<path d="M155.413 24.8306C152.647 24.8306 150.551 22.9315 149.739 18.7772C156.322 19.0055 162.425 17.9053 162.425 17.9053C162.977 10.35 158.061 6.71161 153.45 6.71161C147.835 6.71161 143.909 10.9115 143.909 17.006C143.909 22.4293 147.305 27.6975 153.729 27.6975C157.705 27.6975 160.252 25.7071 161.708 23.5889L160.937 22.023C160.147 23.1369 158.102 24.8352 155.408 24.8352L155.413 24.8306ZM153.423 8.57418C155.463 8.57418 157.435 11.5415 157.266 16.2482C154.39 16.9238 151.145 16.9923 149.483 16.9421C149.451 16.6134 149.405 16.3121 149.387 15.9606C149.177 11.7013 151.076 8.57418 153.423 8.57418Z" fill="#212492"/>
<path d="M187.154 23.1493C187.154 26.3495 188.985 27.6871 191.578 27.6871C193.344 27.6871 195.463 26.984 196.512 25.0804L195.791 23.6195C195.262 24.5326 194.294 25.1032 193.55 25.1032C192.806 25.1032 192.226 24.5874 192.271 23.4415V9.10701C194.627 9.10701 196.024 9.49505 196.024 9.49505C196.627 8.38116 196.732 6.8701 196.732 6.8701C196.732 6.8701 194.919 7.04357 192.271 7.04357V0.337402C189.93 1.99454 187.159 2.70214 187.159 2.70214V7.04357C185.794 7.03444 184.931 7.02531 184.931 7.02531C184.931 7.02531 184.917 8.18942 185.218 9.18005C185.218 9.18005 186.127 9.10245 187.163 9.10245V23.1448L187.154 23.1493Z" fill="#212492"/>
<path d="M142.201 39.1588C140.526 38.7662 138.385 38.4786 136.385 38.4786C128.41 38.4786 124.685 43.4591 124.685 50.074C124.685 55.9174 128.173 59.4599 132.231 59.4599C134.276 59.4599 135.938 58.3825 137.161 56.7619V59.1221H142.183L142.206 39.1633L142.201 39.1588ZM133.733 56.5839C131.994 56.5839 129.816 54.8491 129.816 49.4668C129.816 41.6148 134.335 39.9942 137.088 40.4096V54.5706C136.28 55.8306 135.002 56.5839 133.737 56.5839H133.733Z" fill="#212492"/>
<path d="M149.537 42.0348C149.537 41.0213 150.779 40.1814 152.45 40.1814C155.166 40.1814 157.787 42.3042 159.069 44.1348C160.772 42.1763 161.06 39.7568 161.06 39.7568C158.928 38.894 156.143 38.4786 153.5 38.4786C149.323 38.4786 145.607 40.1996 145.607 43.7422C145.607 49.9736 157.714 51.4572 157.714 55.3376C157.714 56.7117 156.791 57.6841 154.806 57.6841C151.975 57.6841 148.711 54.7715 147.643 52.6305C145.671 54.5798 145.059 56.9536 145.059 56.9536C147.707 58.4419 150.775 59.4645 154.459 59.4645C158.85 59.4645 161.334 57.1865 161.334 53.7398C161.334 46.5041 149.533 45.4678 149.533 42.0394L149.537 42.0348Z" fill="#212492"/>
<path d="M121.622 52.8912C118.399 56.137 114.843 56.7351 109.994 56.8081V45.8062C115.683 45.8838 118.298 47.9061 118.298 47.9061C119.417 45.9522 119.709 43.3958 119.709 43.3958C119.709 43.3958 116.742 43.6149 113.153 43.6149H109.99V34.617C114.838 34.6901 119.184 35.5712 121.695 38.4883C121.695 38.4883 122.873 35.8496 123.388 32.4486H104.63V59.1181H123.462C123.005 55.8951 121.617 52.8867 121.617 52.8867L121.622 52.8912Z" fill="#212492"/>
<path d="M229.55 59.1184L229.541 44.5648C229.541 40.5201 226.67 38.4749 223.232 38.4749C220.283 38.4749 218.347 40.1777 217.074 42.2229V38.8127H212.043V59.1184H217.156V44.6881C218.014 42.935 219.443 41.844 221.032 41.844C222.712 41.844 224.46 42.7479 224.46 45.6102V59.1184H229.546H229.55Z" fill="#212492"/>
<path d="M206.51 38.4795C204.296 38.4795 202.712 40.091 201.466 42.1224V38.8173H196.435V59.123H201.548V44.5602C202.137 43.1496 203.26 42.3964 204.415 42.3964C206.113 42.3964 207.25 43.775 207.866 45.9024C209.783 43.3139 210.094 40.3466 210.094 40.3466C209.108 39.0273 207.684 38.4749 206.51 38.4749V38.4795Z" fill="#212492"/>
<path d="M186.502 56.119C183.736 56.119 181.641 54.2199 180.828 50.0656C187.411 50.2939 193.514 49.1937 193.514 49.1937C194.067 41.6384 189.15 38 184.539 38C178.924 38 174.998 42.1999 174.998 48.2944C174.998 53.7177 178.395 58.9859 184.818 58.9859C188.794 58.9859 191.341 56.9955 192.798 54.8773L192.026 53.3114C191.236 54.4253 189.191 56.1235 186.498 56.1235L186.502 56.119ZM184.512 39.8626C186.553 39.8626 188.525 42.8299 188.356 47.5365C185.48 48.2122 182.234 48.2807 180.572 48.2304C180.54 47.9018 180.495 47.6005 180.476 47.2489C180.266 42.9897 182.166 39.8626 184.512 39.8626Z" fill="#212492"/>
<path d="M164.931 54.9273C164.931 58.1274 166.761 59.465 169.354 59.465C171.121 59.465 173.239 58.762 174.289 56.8583L173.568 55.3975C173.038 56.3105 172.071 56.8812 171.327 56.8812C170.582 56.8812 170.003 56.3653 170.048 55.2195V40.885C172.404 40.885 173.801 41.273 173.801 41.273C174.403 40.1591 174.508 38.6481 174.508 38.6481C174.508 38.6481 172.696 38.8215 170.048 38.8215V32.1154C167.706 33.7725 164.935 34.4801 164.935 34.4801V38.8215C163.57 38.8124 162.708 38.8033 162.708 38.8033C162.708 38.8033 162.694 39.9674 162.995 40.958C162.995 40.958 163.904 40.8804 164.94 40.8804V54.9227L164.931 54.9273Z" fill="#212492"/>
<path d="M91.4188 72.9599C91.4416 72.9645 90.3368 73.0832 89.5014 73.4119C89.5014 73.4119 88.1091 72.4943 86.3698 71.6863C85.16 69.7004 83.5805 66.5003 83.0783 62.5651C82.5624 58.5387 82.9322 55.6125 81.8138 51.8508C82.6081 52.5675 83.7083 53.7864 84.1831 55.3933C87.3056 52.0243 89.2412 47.2811 89.2412 41.2871C89.2412 33.394 85.9543 28.4956 83.3933 25.7109C84.8313 25.0489 86.4474 24.6198 89.4056 25.8113C89.4056 25.8113 90.2318 24.5285 90.3962 22.9444C90.5605 21.3329 90.0219 20.1277 90.0219 20.1277C90.0219 20.1277 89.2184 20.6847 87.8945 20.6847C86.5706 20.6847 86.1917 20.0364 86.1506 19.548C86.1004 18.9271 86.6163 18.183 88.0086 18.0689C89.3964 17.9593 90.1999 18.8404 90.1999 18.8404C90.1999 18.8404 91.7109 17.0554 91.4416 14.3711C91.4416 14.3711 92.1766 13.4261 92.2405 11.8512C92.2405 11.8512 89.9214 10.0799 84.4022 9.6736C84.4022 9.6736 83.8452 8.74231 83.197 8.03015C83.197 8.03015 82.4392 7.5919 81.5946 7.44125C81.5946 7.44125 82.3707 6.60127 82.3707 5.44173C82.3707 2.84874 78.4903 0.0137939 72.9528 0.0137939C69.0816 0.0137939 66.6301 1.10029 66.6301 1.10029C66.6301 1.10029 70.0175 1.48377 71.0674 3.41025C71.0674 3.41025 67.9632 2.08636 64.6717 3.30525C62.1928 4.2274 59.9559 4.30958 58.4357 3.27786C58.4357 3.27786 59.0383 6.18128 61.4442 7.12169C61.4442 7.12169 58.5407 7.62842 56.5777 10.9016C54.9389 13.6316 53.9528 15.6037 51.0494 16.5167C51.0494 16.5167 53.1219 17.9456 55.8838 17.5576C55.8838 17.5576 53.2589 20.2327 52.9667 24.9531C52.7385 28.628 51.6337 31.431 49.3192 32.7184C49.3192 32.7184 51.8802 33.6314 54.6741 32.7184C54.4093 35.7405 51.7935 38.1143 47.9177 38.1143C44.0419 38.1143 42.8641 37.4798 38.7829 37.5163C33.7156 37.562 30.4835 38.9543 26.0234 40.5202C19.6641 42.7479 11.6478 41.3738 11.6478 34.9644C11.6478 31.2529 14.8251 28.3404 19.8239 28.3404C24.8227 28.3404 27.6075 29.7419 31.6111 29.7419C36.4866 29.7419 39.6229 25.9939 39.2394 21.7164C39.2394 21.7164 37.7192 24.6198 33.2499 24.1953C30.1137 23.8985 28.2192 25.2498 27.0596 27.0028C24.5671 26.633 23.0515 26.1765 19.687 26.1765C13.4419 26.1765 9 29.8469 9 35.3844C9 40.9219 14.3777 44.5603 20.7461 44.5603C23.7591 44.5603 26.142 44.1996 27.822 43.7797C25.0692 47.6783 25.4208 50.0476 24.2612 52.4351C22.5493 55.9685 20.3489 56.9774 17.2264 57.822C15.3547 58.3287 14.1814 58.8811 14.1814 58.8811C13.3506 66.9522 9 73.2202 9 73.2202C10.8306 74.1834 12.0312 76.1373 12.506 77.6529H23.7088C24.3571 77.0229 24.8227 75.5803 24.8227 75.5803C24.8227 75.5803 24.1882 74.4482 22.7091 72.9599C22.7319 72.9645 21.7413 73.0147 20.7917 73.4119C20.7917 73.4119 19.7646 72.7591 18.3631 71.951C18.4361 71.1887 18.6826 69.5498 19.4952 67.5822C20.4037 65.391 22.0197 63.9621 22.0197 63.9621C26.7629 64.4094 28.4794 64.5281 30.9902 62.6245C32.2958 61.6339 33.6791 60.3465 35.2495 59.1869C35.0212 61.2458 34.2269 63.008 32.5971 64.6971C30.4378 66.934 29.5659 68.9837 29.5659 68.9837C33.0354 70.6271 36.199 74.2929 36.651 77.6483H47.0001C47.6484 77.0183 48.114 75.5757 48.114 75.5757C48.114 75.5757 47.4794 74.4436 46.0003 72.9554C46.0232 72.9599 44.9047 73.0102 43.4576 73.4621C41.8552 72.4806 38.7966 70.3532 38.7966 68.3446C38.7966 66.0666 41.28 66.0529 44.3615 63.6927C45.5621 62.7751 46.6942 60.5565 47.4521 57.6805C46.2925 57.1144 45.3749 56.489 45.3749 56.489C49.7209 56.7081 55.2493 58.9267 59.9012 59.995C60.7685 63.5832 59.9468 66.3131 58.8923 68.5409C57.7145 71.0335 57.1758 73.2156 57.1758 73.2156C58.8831 74.1377 59.5679 75.5757 60.0335 77.6483H70.1864C70.8346 77.0183 71.3003 75.5757 71.3003 75.5757C71.3003 75.5757 70.6657 74.4436 69.1866 72.9554C69.2094 72.9599 68.1549 73.0786 67.2693 73.4073C67.2693 73.4073 66.3106 72.7956 64.9776 72.0241C65.8084 68.3126 68.5749 66.3725 70.4877 62.4419C69.246 62.2045 68.0134 61.4649 67.6847 61.1317C68.9492 61.2276 70.6475 61.2504 71.7111 61.0906C73.4733 63.9666 75.6645 65.5142 76.783 68.7326C77.6778 71.3028 76.9382 73.2064 76.9382 73.2064C78.7506 73.9962 79.7503 75.7081 80.4762 77.6483H92.4231C93.0714 77.0183 93.537 75.5757 93.537 75.5757C93.537 75.5757 92.9024 74.4436 91.4233 72.9554L91.4188 72.9599ZM86.073 41.246C84.247 35.6948 79.4718 33.3849 74.4274 30.9471L73.2404 30.3719C68.9949 28.2947 67.5751 25.437 67.1323 23.4055C66.5982 20.9586 67.2099 18.361 68.7666 16.4528C66.9086 21.2325 69.812 25.9163 76.468 29.1576C84.1602 32.901 85.8676 37.9728 86.0685 41.246H86.073ZM76.4862 21.8671L77.308 22.6203C79.0838 24.2272 81.4668 26.3774 83.1924 29.6186C81.412 27.7926 79.7092 26.7015 78.189 25.72C76.1302 24.3916 74.3498 23.2457 73.2039 20.7303C72.2726 18.6943 72.6881 16.0693 74.1809 14.4852C73.6057 16.4482 73.6102 19.1873 76.4817 21.8716L76.4862 21.8671ZM87.6434 22.077C88.5154 22.077 89.0677 21.9355 89.0677 21.9355C89.2686 23.0038 88.7345 23.7798 88.7345 23.7798C88.7345 23.7798 86.7715 22.7938 83.7265 23.4557C83.7265 23.4557 83.7174 22.2642 84.708 21.8853C85.7808 21.4745 86.6756 22.077 87.6389 22.077H87.6434ZM82.1927 9.18057C82.1927 9.18057 83.0281 9.83338 83.3842 10.9153C81.8366 10.9153 80.4031 11.486 79.7868 12.262C79.7868 12.262 80.9738 12.3716 81.9142 12.7368C83.1605 13.2161 83.9411 13.9283 83.9411 13.9283C83.8635 13.1751 83.69 12.7551 83.3933 12.3762C83.3933 12.3762 83.6672 11.7827 83.6763 11.1071C84.5391 11.0797 87.8123 11.0842 90.4145 12.5679C90.4145 12.5679 89.2321 12.5542 87.7028 13.3942C87.7028 13.3942 88.3647 13.4809 88.9901 13.6681C89.6612 13.869 90.0675 14.0881 90.0675 14.0881C90.2638 15.6996 89.5608 16.745 89.5608 16.745C86.8491 15.9872 85.7672 17.5256 84.667 17.5256C83.2426 17.5256 83.0783 16.3843 83.0783 16.3843C80.7409 16.713 79.061 18.0323 79.061 18.0323C77.0249 16.0967 77.8375 12.7322 77.8375 12.7322C76.4086 10.6049 73.9115 9.57773 73.9115 9.57773C76.678 8.71493 79.6955 8.59167 82.1881 9.18513L82.1927 9.18057ZM69.0086 8.54145C70.4557 8.54145 72.3457 9.69186 73.0442 11.1801C73.0442 11.1801 71.4281 10.1073 69.917 10.1073C68.9538 10.1073 68.2371 10.6962 68.5886 11.7005C69.0771 13.0792 71.0583 13.8826 71.0583 13.8826C68.7621 14.0516 66.6347 12.2849 66.7123 10.4862C66.7625 9.30839 67.8217 8.54601 69.0086 8.54601V8.54145ZM72.3822 38.0459C71.1451 37.4478 69.9809 36.8817 68.9857 36.3248C62.873 32.8781 60.6224 27.2219 60.5494 23.4283C58.1481 29.6552 60.1157 36.1696 65.5117 40.8032C60.1431 38.0002 57.4588 33.7729 57.4679 27.6374C57.4725 22.7527 59.4629 18.3976 63.2246 15.0468C59.5496 22.6979 62.1335 29.4269 70.2594 33.8322C78.0338 38.0459 83.7676 41.1456 84.4159 47.838C82.5259 42.9488 76.9382 40.2462 72.3868 38.0459H72.3822Z" fill="#D52B1E"/>
</svg>
