<svg width="189" height="38" viewBox="0 0 189 38" fill="none" xmlns="http://www.w3.org/2000/svg">
<path fill-rule="evenodd" clip-rule="evenodd" d="M168.013 20.9895C168.179 21.0214 168.759 21.187 168.759 21.6073V28.2558H170.734V20.7539H168.007L168.013 20.9895Z" fill="#004FB6"/>
<path fill-rule="evenodd" clip-rule="evenodd" d="M152.468 20.7539V20.9895C152.71 21.0405 153.226 21.187 153.016 21.6518L150.066 28.2495H151.62L152.544 26.1925H155.813L156.622 28.2495H158.667L155.743 20.7539H152.468ZM152.971 25.2627L154.296 22.3142L155.456 25.2627H152.971Z" fill="#004FB6"/>
<path fill-rule="evenodd" clip-rule="evenodd" d="M182.782 20.7539V20.9895C183.024 21.0405 183.54 21.187 183.33 21.6518L180.386 28.2495H181.947L182.871 26.1925H186.139L186.949 28.2495H189L186.076 20.7539H182.782ZM183.279 25.2627L184.604 22.3142L185.763 25.2627H183.279Z" fill="#004FB6"/>
<path fill-rule="evenodd" clip-rule="evenodd" d="M177.519 28.2495L180.647 20.7539H179.169L176.876 26.2562L174.697 20.7539H171.919V20.9895C172.238 21.0532 172.601 21.187 172.766 21.6073L175.404 28.2558L177.519 28.2495Z" fill="#004FB6"/>
<path fill-rule="evenodd" clip-rule="evenodd" d="M163.815 28.2495L166.943 20.7539H165.465L163.171 26.2562L160.986 20.7539H158.208V20.9895C158.527 21.0532 158.89 21.187 159.056 21.6073L161.687 28.2558L163.815 28.2495Z" fill="#004FB6"/>
<path d="M131.794 22.9844H133.176L131.685 28.2192H130.194L129.22 24.8503L128.245 28.2192H126.767L125.257 22.9844H126.658L127.55 26.608L128.595 22.9844H129.908L130.921 26.5124L131.794 22.9844Z" fill="#004FB6"/>
<path fill-rule="evenodd" clip-rule="evenodd" d="M133.96 22.0853C134.125 22.2445 134.329 22.3209 134.565 22.3209C134.807 22.3209 135.005 22.2381 135.17 22.0853C135.336 21.9261 135.419 21.7223 135.419 21.4803C135.419 21.2256 135.336 21.0218 135.17 20.8626C135.005 20.7034 134.801 20.627 134.565 20.627C134.329 20.627 134.125 20.7034 133.96 20.8626C133.794 21.0218 133.711 21.2256 133.711 21.4803C133.711 21.7223 133.794 21.9261 133.96 22.0853ZM135.253 28.218V22.9832H133.883V28.218H135.253Z" fill="#004FB6"/>
<path d="M140.7 26.6447C140.592 27.186 140.35 27.6063 139.974 27.8993C139.598 28.1859 139.133 28.326 138.585 28.326C137.954 28.326 137.464 28.1668 137.113 27.842C136.769 27.5172 136.597 27.065 136.597 26.4919V24.1547H135.814V22.9893H136.597V21.7793H137.967V22.9893H140.082V24.1547H137.967V26.3581C137.967 26.8549 138.197 27.1032 138.655 27.1032C138.865 27.1032 139.038 27.0459 139.165 26.9313C139.292 26.8103 139.382 26.632 139.445 26.3836L140.7 26.6447Z" fill="#004FB6"/>
<path d="M144.204 22.8876C144.612 22.8876 144.975 22.9832 145.288 23.1678C145.606 23.3462 145.848 23.6009 146.027 23.9257C146.199 24.2505 146.288 24.6198 146.288 25.0401V28.2307H144.905V25.2121C144.905 24.8746 144.797 24.6007 144.587 24.3969C144.383 24.1868 144.115 24.0785 143.784 24.0785C143.465 24.0785 143.204 24.1868 142.988 24.3969C142.784 24.6007 142.682 24.8746 142.682 25.2121V28.2307H141.299V20.6523H142.682V23.62C143.032 23.1296 143.542 22.8876 144.204 22.8876Z" fill="#004FB6"/>
<path d="M54.212 17.5509C52.1032 16.844 50.16 16.2645 50.16 14.5068C50.16 13.0739 51.3705 11.9658 53.2309 11.9658C54.8682 11.9658 56.0979 12.6472 56.9261 13.9337L59.1688 12.2779C57.7607 10.6412 56.0278 9.55859 53.2309 9.55859C49.8414 9.55859 47.3375 11.7748 47.3375 14.5705C47.3375 17.9457 50.0262 18.9519 52.5173 19.7607C54.6261 20.4421 56.6394 21.0471 56.6394 22.9321C56.6394 24.5688 55.3588 25.8807 53.3201 25.8807C51.4597 25.8807 50.0007 24.9509 48.924 23.206L46.5029 25.0783C48.0702 27.0971 50.1982 28.428 53.3392 28.428C57.13 28.428 59.4555 25.7342 59.4555 22.913C59.4618 19.4996 56.7286 18.4106 54.212 17.5509Z" fill="#FF0008"/>
<path d="M71.2103 15.4186C66.553 15.3613 65.2724 19.1632 65.3679 21.2775C65.3807 21.5068 65.3679 28.0089 65.3679 28.0089H68.0566V21.6023C68.0566 19.3925 69.2989 17.9723 71.2549 17.9723C73.4465 17.9723 74.3003 19.8574 74.3003 21.6023V28.0089H77.0144V20.8827C77.008 17.482 74.3767 15.4568 71.2103 15.4186Z" fill="#FF0008"/>
<path d="M92.4772 10.0488H95.0957V28.0203H92.4772V10.0488Z" fill="#FF0008"/>
<path fill-rule="evenodd" clip-rule="evenodd" d="M99.5428 12.9271C99.5428 12.0801 98.9375 11.4688 98.0965 11.4688C97.2555 11.4688 96.6503 12.0737 96.6503 12.9271C96.6503 13.7741 97.23 14.3855 98.0965 14.3855C98.9375 14.3855 99.5428 13.7741 99.5428 12.9271ZM99.4281 15.7037H96.7841V28.0074H99.4281V15.7037Z" fill="#FF0008"/>
<path fill-rule="evenodd" clip-rule="evenodd" d="M63.8134 12.9271C63.8134 12.0801 63.2081 11.4688 62.3671 11.4688C61.5262 11.4688 60.9209 12.0737 60.9209 12.9271C60.9209 13.7741 61.5007 14.3855 62.3671 14.3855C63.2081 14.3855 63.8134 13.7741 63.8134 12.9271ZM63.686 15.7037H61.042V28.0074H63.686V15.7037Z" fill="#FF0008"/>
<path d="M100.951 15.7049H103.028V15.0617C103.028 11.2216 104.2 10.0371 108.042 10.0371H108.265V12.4698C105.939 12.4698 105.672 12.8647 105.672 15.0809V15.6986H108.265V18.0612H105.672V28.0023H103.028V18.0676H100.951V15.7049Z" fill="#FF0008"/>
<path fill-rule="evenodd" clip-rule="evenodd" d="M114.986 15.4629C111.393 15.4629 108.634 18.2904 108.634 21.9077C108.634 25.4803 111.227 28.2569 115.088 28.2697C117.802 28.2697 119.733 26.9387 120.81 24.9199L118.65 23.7163C118.019 25.0473 116.738 25.9325 115.082 25.9325C112.96 25.9325 111.489 24.6779 111.145 22.7801H121.268V21.7421C121.268 18.0994 118.599 15.4629 114.986 15.4629ZM118.618 20.5257H111.278C111.763 18.9018 113.183 17.7682 114.999 17.7682C116.885 17.7682 118.229 18.749 118.618 20.5257Z" fill="#FF0008"/>
<path fill-rule="evenodd" clip-rule="evenodd" d="M78.3459 21.9201C78.3459 18.3157 81.2002 15.3926 84.7107 15.3926C88.1384 15.3926 90.8143 18.2074 90.878 21.8183L90.8525 28.4541C90.8525 32.5235 88.304 34.6569 84.6279 34.6569C81.5124 34.6569 79.4036 33.1539 78.4543 31.1224L80.9199 29.9443C81.5443 31.3135 82.7293 32.1987 84.6279 32.1987C86.6985 32.1987 88.3232 30.7976 88.3232 28.6642V27.2441C87.3165 28.0083 86.0741 28.4477 84.7107 28.4477C81.2002 28.4477 78.3459 25.5246 78.3459 21.9201ZM80.8944 21.9201C80.8944 24.1045 82.6019 25.8813 84.7107 25.8813C86.775 25.8813 88.3232 24.1745 88.3232 21.9201C88.3232 19.6657 86.775 17.959 84.7107 17.959C82.6146 17.959 80.8944 19.7358 80.8944 21.9201Z" fill="#FF0008"/>
<path fill-rule="evenodd" clip-rule="evenodd" d="M9.71093 4.85913H8.60242V2.98047H9.71093C14.4237 2.98047 18.8831 5.1075 21.8665 8.76931L20.416 9.96019C17.7936 6.73143 13.8599 4.85913 9.71093 4.85913Z" fill="#FF0008"/>
<path fill-rule="evenodd" clip-rule="evenodd" d="M28.289 33.1474H29.3912V35.0325H28.2827C23.5699 35.0325 19.1106 32.9054 16.1271 29.2436L17.5776 28.0527C20.2064 31.2751 24.14 33.1474 28.289 33.1474Z" fill="#FF0008"/>
<path fill-rule="evenodd" clip-rule="evenodd" d="M14.9871 2.52895L13.9482 2.15322L14.5817 0.382812L15.6205 0.758546C20.0609 2.357 23.5511 5.87871 25.1284 10.3493L23.3611 10.9798C21.9739 7.03775 18.9017 3.93636 14.9871 2.52895Z" fill="#FF0008"/>
<path fill-rule="evenodd" clip-rule="evenodd" d="M23.006 35.4723L24.0449 35.848L23.4114 37.6184L22.3726 37.2427C17.9322 35.6442 14.442 32.1225 12.8647 27.652L14.632 27.0215C16.0256 30.9635 19.0977 34.0649 23.006 35.4723Z" fill="#FF0008"/>
<path fill-rule="evenodd" clip-rule="evenodd" d="M20.9473 2.15251L20.1049 1.43925L21.3084 0L22.1509 0.713256C25.7614 3.77007 27.8138 8.2916 27.7378 13.0297L25.8628 13.0042C25.9325 8.82655 24.1272 4.84632 20.9473 2.15251Z" fill="#FF0008"/>
<path fill-rule="evenodd" clip-rule="evenodd" d="M17.0522 35.8479L17.8947 36.5611L16.6912 38.0004L15.8487 37.2871C12.2381 34.2303 10.1858 29.7088 10.2618 24.9707L12.1368 24.9962C12.0671 29.1738 13.8724 33.1604 17.0522 35.8479Z" fill="#FF0008"/>
<path fill-rule="evenodd" clip-rule="evenodd" d="M26.3068 3.7118L25.743 2.76291L27.352 1.79492L27.9157 2.74381C30.3354 6.81319 30.8105 11.7614 29.2079 16.2193L27.447 15.5761C28.8532 11.6531 28.4351 7.29718 26.3068 3.7118Z" fill="#FF0008"/>
<path fill-rule="evenodd" clip-rule="evenodd" d="M11.6932 34.2873L12.257 35.2361L10.6481 36.2041L10.0843 35.2553C7.66458 31.1859 7.1895 26.2377 8.79843 21.7734L10.5594 22.4166C9.14682 26.3459 9.55855 30.7019 11.6932 34.2873Z" fill="#FF0008"/>
<path fill-rule="evenodd" clip-rule="evenodd" d="M31.1395 7.2278L30.9368 6.13881L32.7801 5.79492L32.9828 6.88391C33.8442 11.5456 32.571 16.3537 29.5242 19.9709L28.0927 18.7545C30.7784 15.564 31.8996 11.3354 31.1395 7.2278Z" fill="#FF0008"/>
<path fill-rule="evenodd" clip-rule="evenodd" d="M6.85977 30.7724L7.06247 31.8614L5.21917 32.2053L5.01647 31.1163C4.155 26.4546 5.42821 21.6465 8.47503 18.0293L9.90659 19.2457C7.21449 22.4362 6.09965 26.6648 6.85977 30.7724Z" fill="#FF0008"/>
<path fill-rule="evenodd" clip-rule="evenodd" d="M34.4273 12.132L34.6109 11.043L36.4606 11.355L36.2769 12.444C35.4914 17.1184 32.66 21.1941 28.5616 23.5441L27.6305 21.9074C31.2411 19.8377 33.7368 16.2523 34.4273 12.132Z" fill="#FF0008"/>
<path fill-rule="evenodd" clip-rule="evenodd" d="M3.57227 25.8691L3.38857 26.9581L1.53894 26.6461L1.72264 25.5571C2.5081 20.8763 5.33955 16.807 9.44421 14.457L10.369 16.0937C6.75845 18.1634 4.26271 21.7488 3.57227 25.8691Z" fill="#FF0008"/>
<path fill-rule="evenodd" clip-rule="evenodd" d="M35.8273 17.7937L36.3657 16.832L38 17.7554L37.4616 18.7171C35.1495 22.8501 31.1082 25.7159 26.4651 26.531L26.1421 24.6778C30.2277 23.9582 33.7877 21.43 35.8273 17.7937Z" fill="#FF0008"/>
<path fill-rule="evenodd" clip-rule="evenodd" d="M2.17268 20.2061L1.63426 21.1678L0 20.2507L0.53842 19.2891C2.85046 15.1497 6.89177 12.2839 11.5412 11.4688L11.8642 13.3219C7.76591 14.0416 4.21234 16.5698 2.17268 20.2061Z" fill="#FF0008"/>
<path fill-rule="evenodd" clip-rule="evenodd" d="M35.1619 23.8553L36.0044 23.1484L37.2079 24.5941L36.3654 25.3009C32.7485 28.3387 27.9598 29.5868 23.3293 28.6953L23.6841 26.8485C27.7634 27.6318 31.9757 26.53 35.1619 23.8553Z" fill="#FF0008"/>
<path fill-rule="evenodd" clip-rule="evenodd" d="M2.83152 14.1445L1.98905 14.8514L0.785522 13.4058L1.62799 12.6989C5.24491 9.65485 10.0337 8.40666 14.6641 9.30459L14.3094 11.1514C10.2364 10.3681 6.02403 11.4698 2.83152 14.1445Z" fill="#FF0008"/>
<path fill-rule="evenodd" clip-rule="evenodd" d="M32.5526 29.0969L33.5851 28.7212L34.2249 30.4916L33.1924 30.8673C28.7584 32.4912 23.8366 32.0263 19.7826 29.6L20.7391 27.9824C24.318 30.1158 28.6507 30.5234 32.5526 29.0969Z" fill="#FF0008"/>
<path fill-rule="evenodd" clip-rule="evenodd" d="M5.44143 8.90213L4.40893 9.27786L3.76917 7.51383L4.80166 7.13809C9.23571 5.51416 14.1575 5.97905 18.2115 8.4054L17.255 10.023C13.6824 7.88319 9.34339 7.47562 5.44143 8.90213Z" fill="#FF0008"/>
<path fill-rule="evenodd" clip-rule="evenodd" d="M9.71093 4.85913H8.60242V2.98047H9.71093C14.4237 2.98047 18.8831 5.1075 21.8665 8.76931L20.416 9.96019C17.7936 6.73143 13.8599 4.85913 9.71093 4.85913Z" fill="#FF0008"/>
<path fill-rule="evenodd" clip-rule="evenodd" d="M28.289 33.1474H29.3912V35.0325H28.2827C23.5699 35.0325 19.1106 32.9054 16.1271 29.2436L17.5776 28.0527C20.2064 31.2751 24.14 33.1474 28.289 33.1474Z" fill="#FF0008"/>
</svg>
